<mxfile host="app.diagrams.net" modified="2024-02-28T03:23:21.601Z" agent="Mozilla/5.0 (Windows NT 10.0; Win64; x64) AppleWebKit/537.36 (KHTML, like Gecko) Chrome/122.0.0.0 Safari/537.36" etag="hVBxOGQW3N-bGwH6bt60" version="23.1.7" type="github">
  <diagram name="第 1 页" id="ltzMS2VtQxm3MTg9Tlt2">
    <mxGraphModel dx="1290" dy="557" grid="1" gridSize="10" guides="1" tooltips="1" connect="1" arrows="1" fold="1" page="1" pageScale="1" pageWidth="827" pageHeight="1169" math="0" shadow="0">
      <root>
        <mxCell id="0" />
        <mxCell id="1" parent="0" />
        <mxCell id="ScZXGfgxsAbNoTXpN_R_-17" value="用户" style="shape=umlLifeline;perimeter=lifelinePerimeter;whiteSpace=wrap;html=1;container=1;dropTarget=0;collapsible=0;recursiveResize=0;outlineConnect=0;portConstraint=eastwest;newEdgeStyle={&quot;curved&quot;:0,&quot;rounded&quot;:0};" vertex="1" parent="1">
          <mxGeometry x="70" y="60" width="100" height="420" as="geometry" />
        </mxCell>
        <mxCell id="ScZXGfgxsAbNoTXpN_R_-20" value="" style="html=1;points=[[0,0,0,0,5],[0,1,0,0,-5],[1,0,0,0,5],[1,1,0,0,-5]];perimeter=orthogonalPerimeter;outlineConnect=0;targetShapes=umlLifeline;portConstraint=eastwest;newEdgeStyle={&quot;curved&quot;:0,&quot;rounded&quot;:0};" vertex="1" parent="ScZXGfgxsAbNoTXpN_R_-17">
          <mxGeometry x="46" y="90" width="10" height="80" as="geometry" />
        </mxCell>
        <mxCell id="ScZXGfgxsAbNoTXpN_R_-18" value="标准化平台" style="shape=umlLifeline;perimeter=lifelinePerimeter;whiteSpace=wrap;html=1;container=1;dropTarget=0;collapsible=0;recursiveResize=0;outlineConnect=0;portConstraint=eastwest;newEdgeStyle={&quot;curved&quot;:0,&quot;rounded&quot;:0};" vertex="1" parent="1">
          <mxGeometry x="260" y="60" width="100" height="420" as="geometry" />
        </mxCell>
        <mxCell id="ScZXGfgxsAbNoTXpN_R_-21" value="" style="html=1;points=[[0,0,0,0,5],[0,1,0,0,-5],[1,0,0,0,5],[1,1,0,0,-5]];perimeter=orthogonalPerimeter;outlineConnect=0;targetShapes=umlLifeline;portConstraint=eastwest;newEdgeStyle={&quot;curved&quot;:0,&quot;rounded&quot;:0};" vertex="1" parent="ScZXGfgxsAbNoTXpN_R_-18">
          <mxGeometry x="45" y="90" width="10" height="80" as="geometry" />
        </mxCell>
        <mxCell id="ScZXGfgxsAbNoTXpN_R_-19" value="CPS工艺规范管理系统" style="shape=umlLifeline;perimeter=lifelinePerimeter;whiteSpace=wrap;html=1;container=1;dropTarget=0;collapsible=0;recursiveResize=0;outlineConnect=0;portConstraint=eastwest;newEdgeStyle={&quot;curved&quot;:0,&quot;rounded&quot;:0};" vertex="1" parent="1">
          <mxGeometry x="460" y="60" width="100" height="420" as="geometry" />
        </mxCell>
        <mxCell id="ScZXGfgxsAbNoTXpN_R_-22" style="edgeStyle=orthogonalEdgeStyle;rounded=0;orthogonalLoop=1;jettySize=auto;html=1;curved=0;" edge="1" parent="1">
          <mxGeometry relative="1" as="geometry">
            <mxPoint x="126" y="170" as="sourcePoint" />
            <mxPoint x="305" y="170" as="targetPoint" />
          </mxGeometry>
        </mxCell>
      </root>
    </mxGraphModel>
  </diagram>
</mxfile>
